<svg width="14" height="17" viewBox="0 0 14 17" fill="none" xmlns="http://www.w3.org/2000/svg">
<path d="M12.5716 1.42857C12.5716 2.98214 12.2531 4.35714 11.6162 5.55357C10.9852 6.74405 10.1936 7.65476 9.24119 8.28571C10.1936 8.91667 10.9852 9.83036 11.6162 11.0268C12.2531 12.2173 12.5716 13.5893 12.5716 15.1429H13.4287C13.512 15.1429 13.5805 15.1696 13.6341 15.2232C13.6876 15.2768 13.7144 15.3452 13.7144 15.4286V16C13.7144 16.0833 13.6876 16.1518 13.6341 16.2054C13.5805 16.2589 13.512 16.2857 13.4287 16.2857H0.285836C0.202503 16.2857 0.134051 16.2589 0.0804792 16.2054C0.0269078 16.1518 0.00012207 16.0833 0.00012207 16V15.4286C0.00012207 15.3452 0.0269078 15.2768 0.0804792 15.2232C0.134051 15.1696 0.202503 15.1429 0.285836 15.1429H1.14298C1.14298 13.5893 1.45846 12.2173 2.08941 11.0268C2.72631 9.83036 3.52096 8.91667 4.47334 8.28571C3.52096 7.65476 2.72631 6.74405 2.08941 5.55357C1.45846 4.35714 1.14298 2.98214 1.14298 1.42857H0.285836C0.202503 1.42857 0.134051 1.40179 0.0804792 1.34821C0.0269078 1.29464 0.00012207 1.22619 0.00012207 1.14286V0.571428C0.00012207 0.488095 0.0269078 0.419642 0.0804792 0.366071C0.134051 0.312499 0.202503 0.285713 0.285836 0.285713H13.4287C13.512 0.285713 13.5805 0.312499 13.6341 0.366071C13.6876 0.419642 13.7144 0.488095 13.7144 0.571428V1.14286C13.7144 1.22619 13.6876 1.29464 13.6341 1.34821C13.5805 1.40179 13.512 1.42857 13.4287 1.42857H12.5716ZM11.4287 1.42857H2.28584C2.28584 2.65476 2.53881 3.79762 3.04476 4.85714H10.6698C11.1757 3.79762 11.4287 2.65476 11.4287 1.42857ZM10.9198 12.2857C10.5983 11.4464 10.1638 10.7292 9.61619 10.1339C9.07453 9.53274 8.49715 9.10714 7.88405 8.85714H5.83048C5.21738 9.10714 4.63703 9.53274 4.08941 10.1339C3.54774 10.7292 3.11619 11.4464 2.79476 12.2857H10.9198Z" fill="white"/>
</svg>
