<svg width="21" height="20" viewBox="0 0 21 20" fill="none" xmlns="http://www.w3.org/2000/svg">
<path d="M9.40877 0.85958C9.70861 -0.0606967 11.0105 -0.0606959 11.3104 0.859581L13.0615 6.23398C13.1956 6.64561 13.5793 6.92418 14.0123 6.92418H19.673C20.6424 6.92418 21.0448 8.16521 20.2598 8.73398L15.6849 12.0486C15.3334 12.3033 15.1863 12.7555 15.3208 13.1682L17.0694 18.5349C17.3694 19.4557 16.3161 20.2227 15.5318 19.6544L10.9463 16.3321C10.5963 16.0784 10.1229 16.0784 9.77285 16.3321L5.18731 19.6544C4.40305 20.2227 3.34976 19.4557 3.64978 18.5348L5.39835 13.1682C5.53281 12.7555 5.38573 12.3033 5.03427 12.0486L0.459395 8.73398C-0.325611 8.16521 0.0767195 6.92418 1.04611 6.92418H6.70687C7.1398 6.92418 7.52356 6.64561 7.65767 6.23398L9.40877 0.85958Z" fill="#070707"/>
</svg>
