<svg xmlns="http://www.w3.org/2000/svg">
    <symbol id="instagram" viewBox="0 0 24 24">
        <path d="M12.0025 6.35948C8.88098 6.35948 6.36319 8.87783 6.36319 12C6.36319 15.1222 8.88098 17.6405 12.0025 17.6405C15.1239 17.6405 17.6417 15.1222 17.6417 12C17.6417 8.87783 15.1239 6.35948 12.0025 6.35948ZM12.0025 15.6671C9.98528 15.6671 8.3362 14.0225 8.3362 12C8.3362 9.97746 9.98037 8.33292 12.0025 8.33292C14.0245 8.33292 15.6687 9.97746 15.6687 12C15.6687 14.0225 14.0196 15.6671 12.0025 15.6671ZM19.1877 6.12875C19.1877 6.8602 18.5988 7.44438 17.8724 7.44438C17.1411 7.44438 16.5571 6.85529 16.5571 6.12875C16.5571 5.40221 17.146 4.81312 17.8724 4.81312C18.5988 4.81312 19.1877 5.40221 19.1877 6.12875ZM22.9227 7.46402C22.8393 5.70166 22.4368 4.14058 21.146 2.8544C19.8601 1.56822 18.2994 1.16568 16.5374 1.07732C14.7215 0.974227 9.27853 0.974227 7.46258 1.07732C5.70552 1.16077 4.14479 1.56332 2.85399 2.84949C1.56319 4.13567 1.16564 5.69675 1.0773 7.45911C0.974233 9.27547 0.974233 14.7196 1.0773 16.536C1.16074 18.2983 1.56319 19.8594 2.85399 21.1456C4.14479 22.4318 5.70061 22.8343 7.46258 22.9227C9.27853 23.0258 14.7215 23.0258 16.5374 22.9227C18.2994 22.8392 19.8601 22.4367 21.146 21.1456C22.4319 19.8594 22.8344 18.2983 22.9227 16.536C23.0258 14.7196 23.0258 9.28037 22.9227 7.46402ZM20.5767 18.4849C20.1939 19.4471 19.4528 20.1883 18.4859 20.5761C17.038 21.1505 13.6025 21.018 12.0025 21.018C10.4025 21.018 6.96196 21.1456 5.51902 20.5761C4.55705 20.1932 3.81595 19.452 3.42822 18.4849C2.85399 17.0367 2.9865 13.6004 2.9865 12C2.9865 10.3996 2.8589 6.95838 3.42822 5.51512C3.81104 4.55294 4.55215 3.81167 5.51902 3.42385C6.96687 2.84949 10.4025 2.98204 12.0025 2.98204C13.6025 2.98204 17.0429 2.8544 18.4859 3.42385C19.4479 3.80676 20.189 4.54803 20.5767 5.51512C21.1509 6.96329 21.0184 10.3996 21.0184 12C21.0184 13.6004 21.1509 17.0416 20.5767 18.4849Z"/>
    </symbol>
    <symbol id="facebook" viewBox="0 0 24 24">
        <path d="M17.0107 13.375L17.6218 9.39352H13.8014V6.8098C13.8014 5.72055 14.3351 4.65879 16.0461 4.65879H17.7829V1.26898C17.7829 1.26898 16.2068 1 14.6999 1C11.5537 1 9.49723 2.90695 9.49723 6.35906V9.39352H6V13.375H9.49723V23H13.8014V13.375H17.0107Z"/>
    </symbol>
    <symbol id="github" viewBox="0 0 24 24">
        <path d="M8.35847 18.7144C8.35847 18.8053 8.25645 18.8781 8.12782 18.8781C7.98145 18.8918 7.87944 18.819 7.87944 18.7144C7.87944 18.6234 7.98145 18.5506 8.11008 18.5506C8.24314 18.537 8.35847 18.6097 8.35847 18.7144ZM6.97903 18.5097C6.94798 18.6006 7.03669 18.7053 7.16976 18.7326C7.28508 18.7781 7.41815 18.7326 7.44476 18.6416C7.47137 18.5506 7.3871 18.446 7.25403 18.405C7.13871 18.3732 7.01008 18.4187 6.97903 18.5097ZM8.93952 18.4323C8.81089 18.4642 8.72218 18.5506 8.73548 18.6552C8.74879 18.7462 8.86411 18.8054 8.99718 18.7735C9.12581 18.7417 9.21452 18.6552 9.20121 18.5642C9.1879 18.4778 9.06814 18.4187 8.93952 18.4323ZM11.8581 1C5.70605 1 1 5.79025 1 12.0999C1 17.1449 4.09597 21.4621 8.51815 22.9815C9.08589 23.0861 9.28548 22.7267 9.28548 22.431C9.28548 22.149 9.27218 20.5932 9.27218 19.6378C9.27218 19.6378 6.16734 20.3202 5.51532 18.2822C5.51532 18.2822 5.00968 16.9584 4.28226 16.6172C4.28226 16.6172 3.26653 15.903 4.35323 15.9166C4.35323 15.9166 5.45766 16.0076 6.06532 17.0903C7.03669 18.8463 8.66452 18.3413 9.29879 18.0411C9.40081 17.3132 9.68911 16.8083 10.0085 16.508C7.52903 16.226 5.02742 15.8575 5.02742 11.4812C5.02742 10.2302 5.36452 9.60243 6.07419 8.80178C5.95887 8.50609 5.58185 7.28692 6.18952 5.71291C7.11653 5.41722 9.25 6.94118 9.25 6.94118C10.1371 6.68643 11.0907 6.55451 12.0355 6.55451C12.9802 6.55451 13.9339 6.68643 14.821 6.94118C14.821 6.94118 16.9544 5.41267 17.8815 5.71291C18.4891 7.29147 18.1121 8.50609 17.9968 8.80178C18.7065 9.60698 19.1411 10.2348 19.1411 11.4812C19.1411 15.8712 16.5286 16.2214 14.0492 16.508C14.4573 16.8674 14.8032 17.5498 14.8032 18.6188C14.8032 20.1519 14.7899 22.0489 14.7899 22.4219C14.7899 22.7176 14.994 23.077 15.5573 22.9724C19.9927 21.4621 23 17.1449 23 12.0999C23 5.79025 18.0101 1 11.8581 1ZM5.31129 16.69C5.25363 16.7355 5.26694 16.8401 5.34234 16.9266C5.41331 16.9993 5.51532 17.0312 5.57298 16.972C5.63064 16.9266 5.61734 16.8219 5.54194 16.7355C5.47097 16.6627 5.36895 16.6309 5.31129 16.69ZM4.83226 16.3215C4.80121 16.3807 4.84556 16.4534 4.93427 16.4989C5.00524 16.5444 5.09395 16.5308 5.125 16.4671C5.15605 16.408 5.11169 16.3352 5.02298 16.2897C4.93427 16.2624 4.86331 16.276 4.83226 16.3215ZM6.26935 17.941C6.19839 18.0002 6.225 18.1366 6.32702 18.2231C6.42903 18.3277 6.55766 18.3413 6.61532 18.2686C6.67298 18.2094 6.64637 18.0729 6.55766 17.9865C6.46008 17.8819 6.32702 17.8682 6.26935 17.941ZM5.76371 17.2723C5.69274 17.3178 5.69274 17.4361 5.76371 17.5407C5.83468 17.6453 5.95444 17.6908 6.0121 17.6453C6.08306 17.5862 6.08306 17.4679 6.0121 17.3633C5.95 17.2586 5.83468 17.2132 5.76371 17.2723Z"/>
    </symbol>
    <symbol id="dribble" viewBox="0 0 24 24">
        <path d="M12 1C5.93456 1 1 5.93456 1 12C1 18.0654 5.93456 23 12 23C18.0654 23 23 18.0654 23 12C23 5.93456 18.0654 1 12 1ZM19.2729 6.07269C20.5815 7.6715 21.3739 9.70787 21.3946 11.9255C21.0848 11.86 17.9785 11.23 14.8521 11.6231C14.597 11.0003 14.3562 10.4525 14.0264 9.77734C17.5003 8.359 19.0748 6.34063 19.2729 6.07269ZM18.2283 4.98617C18.0594 5.22688 16.645 7.12789 13.304 8.38016C11.7644 5.55138 10.0579 3.22754 9.79823 2.8798C12.7778 2.16156 15.9177 2.93613 18.2283 4.98617ZM8.00545 3.51137C8.25317 3.85108 9.93213 6.17781 11.4889 8.94524C7.09396 10.1123 3.22298 10.0955 2.80276 10.09C3.41202 7.17442 5.37685 4.75122 8.00545 3.51137ZM2.60431 12.0143C2.60431 11.9183 2.60622 11.8226 2.6091 11.7272C3.02019 11.7356 7.5733 11.7943 12.2654 10.3901C12.5344 10.9165 12.7913 11.4508 13.0272 11.9846C9.62963 12.9416 6.54276 15.6894 5.01975 18.2966C3.51909 16.6309 2.60431 14.4275 2.60431 12.0143ZM6.23285 19.4266C7.21429 17.4203 9.87784 14.8305 13.6658 13.5382C14.9849 16.9661 15.5304 19.839 15.6701 20.6633C12.649 21.9502 9.01625 21.5971 6.23285 19.4266ZM17.2497 19.8031C17.1534 19.2316 16.6533 16.4811 15.4244 13.1041C18.3687 12.6328 20.9555 13.4043 21.2769 13.5057C20.8581 16.12 19.3575 18.3778 17.2497 19.8031Z"/>
    </symbol>
    <symbol id="x" viewBox="0 0 24 24">
        <path fill-rule="evenodd" clip-rule="evenodd" d="M23.495 23L14.698 10.178L14.713 10.19L22.6448 1H19.9942L13.5328 8.48L8.40163 1H1.45009L9.66291 12.971L9.66192 12.97L1 23H3.65059L10.8342 14.678L16.5435 23H23.495ZM7.3514 2.99999L19.6941 21H17.5937L5.24097 2.99999H7.3514Z"/>
    </symbol>
</svg>